Coordinates
version=1
nRows=5
nColumns=63
inDegrees=yes

Units are S.I. units (second, meters, Newtons, ...)
If the header above contains a line with 'inDegrees', this indicates whether rotational values are in degrees (yes) or radians (no).

endheader
time	pelvis_tilt	pelvis_list	pelvis_rotation	pelvis_tx	pelvis_ty	pelvis_tz	hip_flexion_r	hip_adduction_r	hip_rotation_r	knee_angle_r	knee_angle_r_beta	ankle_angle_r	subtalar_angle_r	mtp_angle_r	hip_flexion_l	hip_adduction_l	hip_rotation_l	knee_angle_l	knee_angle_l_beta	ankle_angle_l	subtalar_angle_l	mtp_angle_l	L5_S1_Flex_Ext	L5_S1_Lat_Bending	L5_S1_axial_rotation	L4_L5_Flex_Ext	L4_L5_Lat_Bending	L4_L5_axial_rotation	L3_L4_Flex_Ext	L3_L4_Lat_Bending	L3_L4_axial_rotation	L2_L3_Flex_Ext	L2_L3_Lat_Bending	L2_L3_axial_rotation	L1_L2_Flex_Ext	L1_L2_Lat_Bending	L1_L2_axial_rotation	L1_T12_Flex_Ext	L1_T12_Lat_Bending	L1_T12_axial_rotation	Abs_r3	Abs_r2	Abs_r1	Abs_t1	Abs_t2	neck_flexion	neck_bending	neck_rotation	arm_flex_r	arm_add_r	arm_rot_r	elbow_flex_r	pro_sup_r	wrist_flex_r	wrist_dev_r	arm_flex_l	arm_add_l	arm_rot_l	elbow_flex_l	pro_sup_l	wrist_flex_l	wrist_dev_l
      0.00000000	      4.51952582	     -5.44767333	     96.30414512	      0.12609607	      1.06459917	     -0.09244826	     -5.15680215	      2.85366548	      9.81891379	      2.93414529	      0.05121050	     26.84333922	    -16.42956208	      0.00000000	     -5.86894725	     -2.78441908	     11.51620391	      0.82977142	      0.01448224	     30.58888611	     -7.53261169	      0.00000000	      0.06879732	      0.19530130	      0.23662166	      0.12776351	      0.25975073	      0.25141051	      0.11302712	      0.47485559	      0.25141051	      0.07862846	      0.47485559	      0.20704395	      0.06388519	      0.39825842	      0.19225510	      0.03931079	      0.30252172	      0.17746624	      0.49141240	      2.20928739	      1.31601868	      0.00000000	      0.00000000	     17.03110008	      2.15908299	     12.49778693	     14.56225407	    -11.44788572	     57.12550814	     41.13632396	     49.98029987	     13.26886493	     21.62100738	     11.51471291	     -3.97916900	     54.25887720	     39.11153561	     87.99018229	      8.34219759	     17.53906865
      0.01818182	      4.54538721	     -5.44757932	     98.11011663	      0.12283971	      1.06547579	     -0.09274814	     -5.07354595	      2.95935422	      8.67244961	      2.74033981	      0.04782795	     28.57774118	    -15.80561365	      0.00000000	     -5.40730010	     -2.90788993	     12.66844562	      0.90236218	      0.01574919	     31.51457791	     -6.81373117	      0.00000000	      0.08720913	      0.20624312	     -0.08039546	      0.16195608	      0.27430334	     -0.08542018	      0.14327588	      0.50145951	     -0.08542018	      0.09967132	      0.50145951	     -0.07034603	      0.08098240	      0.42057096	     -0.06532132	      0.04983130	      0.31947059	     -0.06029660	      0.62292611	      2.33306338	     -0.44713546	      0.00000000	      0.00000000	     16.78855592	      1.23796326	     11.34356621	     14.25794352	    -11.52076407	     59.04360281	     41.05750438	     52.05309289	     13.49619777	     17.59692417	     10.29715946	     -3.70481839	     51.19587308	     39.04213392	     85.48261747	      7.40030908	     16.55709120
      0.03636364	      4.53657686	     -5.37937157	     99.57218020	      0.12021881	      1.06616445	     -0.09290399	     -5.05240291	      3.04563119	      7.69351766	      2.82008555	      0.04921978	     29.59107741	    -15.53155213	      0.00000000	     -5.11606059	     -2.97042050	     13.26262583	      1.03181658	      0.01800860	     31.98771060	     -5.91028887	      0.00000000	      0.09368037	      0.21198404	     -0.35598509	      0.17397381	      0.28193877	     -0.37823416	      0.15390748	      0.51541800	     -0.37823416	      0.10706729	      0.51541800	     -0.31148695	      0.08699159	      0.43227786	     -0.28923789	      0.05352896	      0.32836328	     -0.26698882	      0.66914951	      2.39800586	     -1.97988227	      0.00000000	      0.00000000	     16.51198664	      0.63822710	     10.66799474	     14.08674249	    -11.55101275	     60.24032038	     41.01055120	     53.11976312	     13.30814754	     14.95639925	      9.74467894	     -3.63766921	     50.15742034	     38.93529006	     82.32421738	      6.88547500	     15.73828077
      0.05454545	      4.48188175	     -5.34939351	    100.57463723	      0.11836576	      1.06660002	     -0.09303589	     -4.94820317	      3.07712538	      7.15080373	      3.19913815	      0.05583549	     30.09046018	    -15.69191642	      0.00000000	     -4.91006669	     -2.94462872	     13.64295951	      1.18129464	      0.02061748	     32.03520883	     -5.42395251	      0.00000000	      0.10331181	      0.20944661	     -0.55845478	      0.19186037	      0.27856400	     -0.59335821	      0.16973098	      0.50924849	     -0.59335821	      0.11807507	      0.50924849	     -0.48864793	      0.09593535	      0.42710353	     -0.45374451	      0.05903237	      0.32443280	     -0.41884109	      0.73794596	      2.36930197	     -3.10595796	      0.00000000	      0.00000000	     16.28242490	      0.38204976	     10.36642752	     13.85487863	    -11.51310230	     60.43077208	     41.00641720	     53.09475820	     13.04797831	     13.78115097	      9.40603829	     -3.65372162	     49.73954119	     38.89074167	     81.02285191	      6.74358113	     14.77121821
      0.07272727	      4.36920253	     -5.19583907	    101.51240215	      0.11677824	      1.06705178	     -0.09299521	     -5.02027868	      3.08540306	      6.24872189	      3.64910284	      0.06368886	     30.29255652	    -15.55366606	      0.00000000	     -4.83512329	     -2.91676119	     11.98149556	      1.44522952	      0.02522401	     32.46944605	     -2.16590798	      0.00000000	      0.09125471	      0.20054208	     -0.77476866	      0.16946912	      0.26672096	     -0.82319170	      0.14992236	      0.48759801	     -0.82319170	      0.10429500	      0.48759801	     -0.67792258	      0.08473912	      0.40894540	     -0.62949954	      0.05214294	      0.31063968	     -0.58107650	      0.65182325	      2.26857208	     -4.30903086	      0.00000000	      0.00000000	     16.00795324	      0.37420906	     10.48481385	     14.11738673	    -11.51415068	     61.33463258	     40.89844801	     51.90881485	     12.79511924	     12.89103221	      9.55490444	     -3.95006487	     50.80578792	     38.88657862	     79.66392415	      6.57140538	     13.72923060
